<svg xmlns="http://www.w3.org/2000/svg" width="30.281" height="29.135" viewBox="0 0 30.281 29.135"><defs><style>.a{fill:#00589b;}</style></defs><g transform="translate(0 -5.676)"><g transform="translate(6.111 18.2)"><path class="a" d="M60.869,133.9h3.492a.327.327,0,0,0,.327-.327v-3.492a.327.327,0,0,0-.327-.327H60.869a.327.327,0,0,0-.327.327v3.492A.327.327,0,0,0,60.869,133.9Z" transform="translate(-60.542 -129.756)"/></g><g transform="translate(13.067 18.2)"><path class="a" d="M129.785,133.9h3.493a.328.328,0,0,0,.327-.327v-3.492a.328.328,0,0,0-.327-.327h-3.493a.328.328,0,0,0-.327.327v3.492A.328.328,0,0,0,129.785,133.9Z" transform="translate(-129.458 -129.756)"/></g><g transform="translate(20.024 18.2)"><path class="a" d="M198.707,133.9H202.2a.327.327,0,0,0,.327-.327v-3.492a.327.327,0,0,0-.327-.327h-3.492a.327.327,0,0,0-.327.327v3.492A.327.327,0,0,0,198.707,133.9Z" transform="translate(-198.38 -129.756)"/></g><g transform="translate(6.111 25.157)"><path class="a" d="M60.869,202.821h3.492a.327.327,0,0,0,.327-.328V199a.327.327,0,0,0-.327-.328H60.869a.327.327,0,0,0-.327.328v3.492A.327.327,0,0,0,60.869,202.821Z" transform="translate(-60.542 -198.674)"/></g><g transform="translate(13.067 25.157)"><path class="a" d="M129.785,202.821h3.493a.328.328,0,0,0,.327-.328V199a.328.328,0,0,0-.327-.328h-3.493a.328.328,0,0,0-.327.328v3.492A.328.328,0,0,0,129.785,202.821Z" transform="translate(-129.458 -198.674)"/></g><g transform="translate(20.024 25.157)"><path class="a" d="M198.707,202.821H202.2a.327.327,0,0,0,.327-.328V199a.327.327,0,0,0-.327-.328h-3.492a.327.327,0,0,0-.327.328v3.492A.327.327,0,0,0,198.707,202.821Z" transform="translate(-198.38 -198.674)"/></g><g transform="translate(0 5.676)"><path class="a" d="M29.463,5.676H25.739v.906A1.878,1.878,0,0,1,23.861,8.46h-.282A1.878,1.878,0,0,1,21.7,6.582V5.676H17.159v.906A1.878,1.878,0,0,1,15.281,8.46H15a1.878,1.878,0,0,1-1.878-1.878V5.676H8.58v.906A1.878,1.878,0,0,1,6.7,8.46H6.42A1.878,1.878,0,0,1,4.542,6.582V5.676H.818A.818.818,0,0,0,0,6.494v27.5a.818.818,0,0,0,.818.818H29.463a.818.818,0,0,0,.818-.818V6.494A.818.818,0,0,0,29.463,5.676Zm-1.637,26.68H2.455V15.088h25.37Z" transform="translate(0 -5.676)"/></g></g></svg>