<svg xmlns="http://www.w3.org/2000/svg" width="30.351" height="29.135" viewBox="0 0 30.351 29.135"><defs><style>.a{fill:#00589b;}</style></defs><g transform="translate(0 -17.84)"><g transform="translate(0 17.84)"><path class="a" d="M161.156,23.386l12.1-3.3-.641-1.3a1.705,1.705,0,0,0-2.284-.77L159.5,23.386Z" transform="translate(-154.064 -17.84)"/><path class="a" d="M333.974,86.46a1.7,1.7,0,0,0-.45.061l-2.843.777L322,89.667h14.148l-.532-1.95A1.7,1.7,0,0,0,333.974,86.46Z" transform="translate(-311.025 -84.121)"/><path class="a" d="M26.9,215.56H1.708a1.706,1.706,0,0,0-1.646,1.258,1.764,1.764,0,0,0-.061.446v18.988a1.7,1.7,0,0,0,1.7,1.7H26.9a1.7,1.7,0,0,0,1.7-1.7V231.5H18.487a2.9,2.9,0,0,1-2.9-2.9v-3.79a2.893,2.893,0,0,1,2.894-2.894H28.6v-4.652A1.7,1.7,0,0,0,26.9,215.56Z" transform="translate(0 -208.821)"/><path class="a" d="M505.413,437.207a1.7,1.7,0,0,0-.6-.354,1.737,1.737,0,0,0-.552-.092H494.1a1.7,1.7,0,0,0-1.7,1.7v3.793a1.7,1.7,0,0,0,1.7,1.7h10.16a1.736,1.736,0,0,0,.552-.092,1.652,1.652,0,0,0,.6-.354,1.7,1.7,0,0,0,.556-1.258v-3.794A1.7,1.7,0,0,0,505.413,437.207Zm-7.751,3.494a.852.852,0,0,1-.852.852h-.566a.852.852,0,0,1-.852-.852v-.566a.835.835,0,0,1,.327-.668.861.861,0,0,1,.525-.184h.566a.852.852,0,0,1,.852.852v.566Z" transform="translate(-475.617 -422.483)"/></g></g></svg>