<svg xmlns="http://www.w3.org/2000/svg" width="30.351" height="28.454" viewBox="0 0 30.351 28.454"><defs><style>.a{fill:#00589b;}</style></defs><g transform="translate(0 -16)"><path class="a" d="M28.454,19.794H23.712V17.9a1.9,1.9,0,1,0-3.794,0v1.9H10.433V17.9a1.9,1.9,0,1,0-3.794,0v1.9H1.9a1.9,1.9,0,0,0-1.9,1.9v1.9H30.351v-1.9A1.9,1.9,0,0,0,28.454,19.794Z"/><path class="a" d="M0,193.073a1.9,1.9,0,0,0,1.9,1.9H28.454a1.9,1.9,0,0,0,1.9-1.9V176H0Zm20.867-13.279H24.66v3.794H20.867Zm-7.588,0h3.794v3.794H13.279Zm0,7.588h3.794v3.794H13.279Zm-7.588-7.588H9.485v3.794H5.691Zm0,7.588H9.485v3.794H5.691Z" transform="translate(0 -150.515)"/></g></svg>