<svg xmlns="http://www.w3.org/2000/svg" width="29.061" height="29.469" viewBox="0 0 29.061 29.469"><defs><style>.a{fill:#00589b;}</style></defs><g transform="translate(-3.548)"><path class="a" d="M186.039,14.58a7.29,7.29,0,1,0-7.29-7.29A7.3,7.3,0,0,0,186.039,14.58Zm-.863-11.575v-.2a.863.863,0,1,1,1.727,0v.2a2.283,2.283,0,0,1,1.8,2.228.863.863,0,1,1-1.727,0,.553.553,0,0,0-.553-.553h-.774a.552.552,0,0,0-.329,1l.718.532L187.784,7.5a2.289,2.289,0,0,1,.923,1.817v.008a2.281,2.281,0,0,1-1.805,2.245v.2a.863.863,0,1,1-1.727,0v-.2a2.279,2.279,0,0,1-1.8-2.214.863.863,0,0,1,.858-.869h.006a.864.864,0,0,1,.863.858.551.551,0,0,0,.555.549l.773,0a.552.552,0,0,0,.549-.557V9.329a.555.555,0,0,0-.224-.44l-.718-.531-1.746-1.292a2.279,2.279,0,0,1,.882-4.061Z" transform="translate(-165.117)"/><path class="a" d="M9.111,318.8a.8.8,0,0,0-1.1-.294L3.95,320.853a.805.805,0,0,0-.294,1.1l4.151,7.189a.8.8,0,0,0,1.1.294l4.061-2.345a.8.8,0,0,0,.294-1.1Z" transform="translate(0 -300.075)"/><path class="a" d="M157.461,273.591a1.21,1.21,0,0,0-1.689-.275l-5.055,3.642a3.051,3.051,0,0,1-.364.267,3.132,3.132,0,0,1-1.674.479h-4.135a.863.863,0,0,1,0-1.727h4.423a1.144,1.144,0,0,0,1.143-1.192,1.162,1.162,0,0,0-1.171-1.1h-3.367a5.6,5.6,0,0,0-.745-.66,5.523,5.523,0,0,0-3.289-1.08,6.092,6.092,0,0,0-5.27,3.22l3.532,6.117h6.625a7.436,7.436,0,0,0,3.71-.981,14.845,14.845,0,0,0,1.263-.82c1.9-1.365,5.786-4.2,5.789-4.2A1.21,1.21,0,0,0,157.461,273.591Z" transform="translate(-125.081 -256.297)"/></g></svg>