<svg xmlns="http://www.w3.org/2000/svg" width="522.509" height="543.542" viewBox="0 0 522.509 543.542"><defs><style>.a,.ad,.af,.ag,.ai,.b,.d,.f,.j,.z{fill:none;}.a{stroke:#2082cd;}.a,.ai,.b,.d,.f,.z{stroke-miterlimit:10;}.a,.j{stroke-width:1.401px;}.ag,.b,.d{stroke:#d4ddff;}.b{stroke-width:1.091px;}.c{fill:#d4ddff;}.d{stroke-width:1.341px;}.e{fill:#38b885;}.f{stroke:#52538c;stroke-width:1.037px;}.g{fill:#2082cd;}.h{fill:#1968a5;}.i{fill:#95ebff;}.ai,.j{stroke:#a2aedb;}.ad,.af,.ag,.j{stroke-linecap:round;stroke-linejoin:round;}.k{fill:#20284d;}.l{fill:#f8b58f;}.m{fill:#f4c1ba;}.n{fill:#ffafa3;}.o{fill:#242b58;}.p{fill:#f39f37;}.q{fill:#424b74;}.r{fill:#52538c;}.s{fill:#f8b690;}.t{fill:#232c54;}.u{fill:#322f3b;}.v{fill:#ff7f66;}.w{fill:#492bad;}.x{fill:#222b55;}.y{fill:#354380;}.z{stroke:#354380;stroke-width:1.317px;}.aa{fill:#c8ccdb;}.ab{fill:#a2aedb;}.ac{fill:#3ac685;}.ad{stroke:#fff;stroke-width:0.896px;}.ae{fill:#3e84b9;}.af{stroke:#18898d;stroke-width:0.823px;}.ag{stroke-width:0.929px;}.ah{fill:#318384;}.ai{stroke-width:2.945px;}</style></defs><g transform="translate(-115.272 -139.112)"><g transform="translate(136.62 233.483)"><path class="a" d="M301.54,264.82a88.094,88.094,0,0,0-96.478-78.85,88.421,88.421,0,0,0-59.4,31.894A88.1,88.1,0,0,0,222.69,361.3a88.449,88.449,0,0,0,59.4-31.921A88.131,88.131,0,0,0,301.54,264.82ZM247.976,301.5a44.186,44.186,0,0,1-29.7,15.948,44.035,44.035,0,0,1-38.5-71.7,44.217,44.217,0,0,1,29.7-15.946,44.034,44.034,0,0,1,38.5,71.7Z" transform="translate(-125.771 -185.528)"/><path class="a" d="M257.137,329.375A87.132,87.132,0,0,1,226.3,353.381l-19.108-39.7A43.469,43.469,0,0,0,223.023,301.5a44.043,44.043,0,0,0-38.5-71.7A43.5,43.5,0,0,0,169,234.351l-19.079-39.7a86.969,86.969,0,0,1,30.184-8.686,88.093,88.093,0,0,1,77.029,143.406Z" transform="translate(-100.818 -185.528)"/></g><rect class="b" width="115.188" height="71.998" transform="translate(521.849 452.593)"/><rect class="c" width="58.779" height="3.775" transform="translate(530.856 469.596)"/><rect class="c" width="58.779" height="3.775" transform="translate(530.856 480.929)"/><rect class="c" width="58.779" height="3.775" transform="translate(530.856 492.262)"/><rect class="c" width="58.779" height="3.775" transform="translate(530.856 503.595)"/><rect class="d" width="26.89" height="40.606" transform="translate(598.167 466.524)"/><g transform="translate(521.849 544.917)"><rect class="b" width="115.188" height="71.998" transform="translate(0 0)"/><rect class="c" width="58.779" height="3.775" transform="translate(46.218 15.624)"/><rect class="c" width="58.779" height="3.775" transform="translate(46.218 26.957)"/><rect class="c" width="58.779" height="3.775" transform="translate(46.218 38.29)"/><rect class="c" width="58.779" height="3.775" transform="translate(46.218 49.624)"/><path class="c" d="M334.018,363.332l5.937-13.893a15.109,15.109,0,1,1-7.159-1.165Z" transform="translate(-311.441 -328.816)"/></g><g transform="translate(522.046 361.91)"><rect class="b" width="115.188" height="71.998"/><rect class="c" width="81.024" height="3.775" transform="translate(18.407 27.306)"/><rect class="c" width="58.779" height="3.775" transform="translate(29.53 38.733)"/></g><path class="a" d="M288.358,255.243v.01l.085.089c.209.222,2.5,8.464,2.588,8.773l-7.759,4.5c-.226-.226-6.236-6.315-6.325-6.606l-.035-.12-.008,0-8.4,1.118-.006.008,0,.124c-.01.3-4.215,7.755-4.373,8.033l-8.665-2.308c0-.319.057-8.875.2-9.143l.059-.11,0-.008-6.73-5.148-.01,0-.089.085c-.222.207-8.464,2.5-8.773,2.588l-4.5-7.759c.226-.228,6.315-6.236,6.608-6.325l.118-.035,0-.01-1.118-8.4-.008-.006-.122,0c-.3-.01-7.757-4.213-8.035-4.373l2.308-8.665c.319,0,8.875.057,9.145.2l.108.057h.008l5.148-6.732v-.01l-.085-.087c-.209-.224-2.5-8.464-2.588-8.773l7.759-4.5c.226.228,6.234,6.317,6.325,6.608l.035.118.008.006,8.4-1.12.008-.008,0-.122c.01-.3,4.215-7.757,4.373-8.033l8.665,2.306c0,.321-.057,8.875-.2,9.145l-.059.108,0,.01,6.73,5.146h.01l.087-.085c.224-.207,8.466-2.5,8.773-2.588l4.5,7.759c-.228.226-6.317,6.236-6.608,6.325l-.118.035-.006.008,1.12,8.4.008.006.122,0c.3.01,7.757,4.215,8.033,4.373l-2.306,8.665c-.319,0-8.875-.057-9.145-.2l-.108-.059-.01,0Zm-3.688-29.125a18.032,18.032,0,1,0-6.559,24.644A18.031,18.031,0,0,0,284.67,226.118Z" transform="translate(121.7 62.036)"/><g transform="translate(115.272 403.408)"><path class="e" d="M220.2,295.035c.189.313-28.21,39.161-63.927,19.016S220.2,295.035,220.2,295.035Z" transform="translate(-80.9 -242.325)"/><path class="e" d="M137.865,370.367c-.362,0-17.721-45.02,18.16-64.868S137.865,370.367,137.865,370.367Z" transform="translate(-96.591 -234.614)"/><path class="e" d="M187.167,277.817c.254.157-3.336,37.752-35.658,36.048S187.167,277.817,187.167,277.817Z" transform="translate(-86.836 -260.102)"/><path class="e" d="M128.3,269.11c.177-.242,36.845,6.833,32.2,39.24S128.3,269.11,128.3,269.11Z" transform="translate(-101.815 -269.104)"/><path class="e" d="M115.272,307.681c-.155-.258,20.238-31.894,48.1-15.239S115.272,307.681,115.272,307.681Z" transform="translate(-115.272 -249.994)"/><path class="e" d="M126.033,334.232c-.266-.136.537-37.9,32.893-38.647S126.033,334.232,126.033,334.232Z" transform="translate(-104.184 -241.755)"/><path class="e" d="M201.4,330.919c-.016.3-34.464,14.854-48.245-14.775S201.4,330.919,201.4,330.919Z" transform="translate(-78.196 -231.034)"/><path class="f" d="M141.953,292.546s16.359,13.97,18.9,29.349,5,79.4,5,79.4v38.311" transform="translate(-87.705 -244.885)"/><g transform="translate(54.247 191.921)"><path class="g" d="M187.164,365.875l-.683,7.632-5.012,56.012H148.494l-5.012-56.012-.683-7.632Z" transform="translate(-141.079 -361.044)"/><path class="h" d="M187.164,365.875l-.683,7.632h-43l-.683-7.632Z" transform="translate(-141.079 -361.044)"/><rect class="g" width="47.745" height="9.034"/></g></g><ellipse class="i" cx="2.718" cy="3.005" rx="2.718" ry="3.005" transform="translate(237.039 660.802)"/><ellipse class="i" cx="2.718" cy="3.005" rx="2.718" ry="3.005" transform="translate(247.217 660.802)"/><ellipse class="i" cx="2.718" cy="3.005" rx="2.718" ry="3.005" transform="translate(261.256 660.802)"/><ellipse class="i" cx="2.718" cy="3.005" rx="2.718" ry="3.005" transform="translate(272.24 660.802)"/><path class="j" d="M174.6,305.04s-10.27,38.075-12.736,46.444c-1.846,6.272-.277,17.19,15.348,17.19" transform="translate(47.508 171.432)"/><path class="i" d="M172.184,281.017c.1,1,.114,29.257-4.152,44.018-1.594,5.52-2.6,6.716-2.6,6.716s15.592,4.194,21.4-7.077c7.165-13.893,15.765-30.607,7.576-38.679C185.07,276.786,172.184,281.017,172.184,281.017Z" transform="translate(51.828 145.61)"/><rect class="k" width="3.456" height="175.289" transform="translate(365.652 460.716) rotate(4.64)"/><path class="j" d="M318.408,284.334c-1.494,8.23-2.724,20.8-14.956,20.8-9.092,0-27.238,0-27.238,0" transform="translate(166.281 150.039)"/><g transform="translate(230.71 292.542)"><path class="l" d="M191.816,380.152l-3.407,6.938,7.79,3.9,5.025-7.316Z" transform="translate(-155.145 -43.506)"/><path class="l" d="M174.719,392.038l-.924-8.694h8.76v8.694Z" transform="translate(-170.245 -40.209)"/><g transform="translate(36.671)"><path class="m" d="M222.1,261.854c-.185.122,23.15,77.507,23.15,77.507s.691,2.633,4.312,3.127,28.145,0,28.145,0-5.8-8.56-15.653-8.066-11.01-.319-11.01-.319l-9.109-84.759Z" transform="translate(-157.004 -178.653)"/><path class="n" d="M235.943,229.789,226.6,244.857s12.345,14.322,12.345,13.828,7.9-19.094,7.9-19.094Z" transform="translate(-152.362 -198.857)"/><path class="o" d="M242.87,231.188s12.221,10.788,21.6,7.826,12.508-7.513,8.393-12.974-16.129-6.943-22.056-7.6-6.583-4.445-11.028-3.786-8.8,3.786-9.09,9.381,0,21.474,0,21.474l.037,2.887,4.2-6.089.279-5.248,2.6.309Z" transform="translate(-148.264 -214.575)"/><path class="m" d="M237.741,231.541s-4.607-3.95-5.76-1.153,2.881,6.091,2.881,6.091-4.693,3.95-4.2,6.089,10.207,18.107,16.461,16.461,15.143-20.411,14.484-26.336-12.345-14.157-14.484-12.181S237.741,231.541,237.741,231.541Z" transform="translate(-148.198 -208.75)"/><path class="o" d="M235.26,224.856c.165.494,15.775,15.385,24.361,10.7s7.077-10.7,7.077-10.7l-28.971-6.935Z" transform="translate(-143.411 -211.119)"/><path class="p" d="M198.48,272.715c.329-.659,26.665-32.425,42.8-34.4s23.044-.988,23.044-.988l12.345,13.828s6.061,25.726-12.345,54.812c-18.435,29.133-39.112,37.591-39.112,37.591l-35.123-66.068Z" transform="translate(-190.085 -191.325)"/><path class="m" d="M243.059,250.817,218.34,267.08s25.779,21.893,50.171,31.768,76.077,23.7,81.345,19.258c2.306-1.537,4.788-3.294,8.23-9.71,0,0,21.692-4.068,16.625-5.433-4.28-.329-31.439-5.762-33.58,5.268C283.521,294.075,268.511,274.117,243.059,250.817Z" transform="translate(-160.893 -177.131)"/></g><path class="q" d="M247.459,295.266c.88-.514,31.492,57.409,26.057,77.824-10.936,41.076-55.691,98.288-55.691,98.288l-9.409-3.519s23.786-89.488,25.252-98-13.2-11.735-19.657-7.921L184.083,475.779h-9.975s-3.227-72.763,0-94.475a148.875,148.875,0,0,0-1.435-52.224c-2.639-13.791,11.41-26.407,11.41-26.407Z" transform="translate(-171.745 -131.212)"/><path class="r" d="M191.99,382.95s-7.021,4.678-6.866,6.864,6.866,6.24,6.866,6.24l2.184-1.4,7.488,8.582h18.565s2.34-1.561,0-2.653l-16.036-7.488-3.023-7.907C198.342,387.3,193.615,385.453,191.99,382.95Z" transform="translate(-158.542 -40.615)"/><path class="r" d="M175.979,386.019s2.855,4.835,8.759,2.184c0,0,7.933,4.056,10.9,5.148s13.26,3.275,14.2,3.9.614,2.81.614,2.81H189.083s-5.929-3.277-7.645-2.964-1.08,2.964-1.08,2.964H172.34s-.655-8.692,0-10.141C173.051,388.341,173.95,386.487,175.979,386.019Z" transform="translate(-172.049 -37.445)"/></g><path class="i" d="M228.461,349.528H177.534a9.743,9.743,0,0,1-9.714-9.714h0a9.743,9.743,0,0,1,9.714-9.715h50.927a9.743,9.743,0,0,1,9.715,9.715h0A9.743,9.743,0,0,1,228.461,349.528Z" transform="translate(54.292 197.322)"/><g transform="translate(208.748 321.588)"><path class="s" d="M216.359,402.562c-4.365-1.027-8.072-3.818-11.634-6.541a18.612,18.612,0,0,1-2.891-2.539,15.538,15.538,0,0,1-2.755-5.418,4.853,4.853,0,0,1-.27-3.088,1.98,1.98,0,0,1,1.785-1.326c.734.079,1.2.947,1.665,1.484a48.554,48.554,0,0,1,3.314,4.41,98.177,98.177,0,0,0,6.307,8.924A22.844,22.844,0,0,0,216.359,402.562Z" transform="translate(-122.604 -68.945)"/><path class="t" d="M214.57,274.783c.055.087.11.175.165.26,2.546,4.018,6.124,7.275,8.936,11.113,4.536,6.185,6.177,15.169,1.254,21.6-3.359,4.388-7.9,5.715-13.26,5.6a16.814,16.814,0,0,1-5.912-.9,13.775,13.775,0,0,1-5.571-4.6c-1.814-2.352-3.277-5.266-2.794-8.2.388-2.348,1.952-4.3,3.21-6.321a19.87,19.87,0,0,0,2.379-5.268c1.277-4.7.293-9.723-1.185-14.368-1.468-4.613-3.53-9.151-4.211-13.978-.2-1.433-.577-3.763.445-5,1.511-1.832,6.461-2.657,7.874-.431.893,1.4,1.3,3.733,1.942,5.311l2.824,6.941A55.026,55.026,0,0,0,214.57,274.783Z" transform="translate(-124.005 -203.983)"/><path class="s" d="M196.695,390.711c-.244.193,5.3,5.579,5.3,5.579l8.324-17.788-10.7-1.38Z" transform="translate(-124.632 -75.684)"/><path class="u" d="M208.678,451.319s58.328-83.608,56.284-94.856-27.9-36.5-51.053-44.982c0,0,5.5,57.866-3.357,89.364l-13.76,48.926Z" transform="translate(-124.523 -143.5)"/><path class="n" d="M209.308,273.293a2.743,2.743,0,0,1,1.063,1.015c1.383,2.277,2.485,4.786,3.717,7.149q4.4,8.43,8.822,16.847l1.057,2.015s61.583-1.478,63.677,0S298.4,310.455,298.4,310.455s-2.775,1.137-4.19,0c-7.82-6.285-20.387-2.513-20.387-2.513q-14.6,1.735-29.188,3.479-10.028,1.2-20.055,2.4-3.852.467-7.708.933c-1.411.173-2.71.736-4.064.956-2.245.362-3.4-1.854-4.2-3.7a180.121,180.121,0,0,1-10.786-33.909,1.965,1.965,0,0,1-.02-1.094,1.9,1.9,0,0,1,.84-.84C200.941,274.726,206.508,271.784,209.308,273.293Z" transform="translate(-123.555 -183.389)"/><path class="n" d="M192.62,248.487c.15.356,0,16.086,0,16.086s2.135,7.263,7.3,6.563,7.543-3.351,7.543-3.351V251.728Z" transform="translate(-128.834 -208.585)"/><path class="m" d="M206.553,237.123c1.269.122,2.586.246,3.863.362,4.367.394,7.6,3.91,7.309,7.935l-1.368,18.994c-.372,5.148-6.185,8.442-11.329,6.382-6.691-2.678-12.146-5.689-12.3-6.122-.236-.651,0-21.078,0-21.078s2.836-3.042,4.018-.218c.413.99.827.407,1.189-.767A8.111,8.111,0,0,1,206.553,237.123Z" transform="translate(-128.833 -220.367)"/><path class="v" d="M214.97,255.392c3.885,3.115,9.883,7.21,15,5.333a4.559,4.559,0,0,0,.492,1.313c3.676,5.666,8.348,10.91,10.146,17.42,2.2,7.96-.274,16.383-2.859,24.225-1.082,3.281-3.084,6.23-4.077,9.452-1.191,3.873.134,7.578.12,11.406-.026,6.919,1.643,13.728,3.086,20.439.874,4.075,1.671,8.167,2.438,12.264.74,3.952,2.243,8.5,2.2,12.5a33.275,33.275,0,0,0-6.667-.317l-7.35-.1q-9.777-.134-19.557-.272l-34.72-.482c-2.033-.029-2.6.016-2.025-2.068,2.623-9.469,7.968-17.815,11.142-27.139a85.728,85.728,0,0,0,4.717-23.591c.272-5.89-.2-11.792,0-17.685a68.108,68.108,0,0,1,2.194-15.192c1.067-4,2.389-9.3,4.884-12.624a45.388,45.388,0,0,1,9.349-9.143,38.2,38.2,0,0,1,5.555-3.41C209.776,257.35,214.34,254.885,214.97,255.392Z" transform="translate(-151.184 -201.521)"/><path class="m" d="M183.711,287.706c0-.2,30.581-8.436,30.581-8.436l13.132,27.09s60.46-9.914,63.811-9.355,10.613,1.954,11.87,3.491,1.954,11.589,1.954,11.589-1.257-1.675-2.792-4.188-2.513,2.513-6.563,1.116a63.838,63.838,0,0,1-8.379-3.769s-57.39,30.022-70.657,26.252S183.711,287.706,183.711,287.706Z" transform="translate(-138.038 -176.78)"/><path class="w" d="M170.852,311s-4.512,21.31,17.829,32.7,69.478,26.586,76.181,27.7c0,0,32.181,72.507,38.307,85.8,5.044,10.945,5.252,12.9,5.252,12.9l12.738-1.521s-18.319-89.809-24.128-103.659-41.271-46.922-55.935-52.95Z" transform="translate(-151.71 -143.997)"/><path class="x" d="M201.755,382.992c-.366-.185-.708-.03-1.389.271a14.044,14.044,0,0,0-4.377,2.757c-1.3,1.305-1.179,3.361-1.631,5.071a31.184,31.184,0,0,1-2.482,6.419,11.5,11.5,0,0,0,4.148,1.805c.181-3.164,3.542-5.382,5.677-7.258a69.716,69.716,0,0,1,8.051,8.8,8.854,8.854,0,0,0,2.993,3.086,7.787,7.787,0,0,0,1.685.518q4.163.939,8.324,1.885c.834.187,5.317-.366,3.414-1.685-3.835-2.657-8.043-4.764-11.681-7.7a65.058,65.058,0,0,1-6.185-6.382q-2.08-2.223-4.007-4.585c-.663-.811-1.269-1.683-1.952-2.476A2.067,2.067,0,0,0,201.755,382.992Z" transform="translate(-129.603 -69.701)"/><path class="t" d="M256.751,244.044a3.536,3.536,0,0,1-.081.537c-.508,3.883-2.517,5.919-6.508,6.132-4.07.189-8.088-.964-11.971-1.98-2.356-.616-4.955,1.311-6.59,2.865-.7.669-1.151,1.635-2.088,2.035-1.019.429-1.982-.161-2.84.884a3.352,3.352,0,0,0-.535,2.625,6.7,6.7,0,0,0,1.151,2.464,5.127,5.127,0,0,1,.777,1.34,4.5,4.5,0,0,1-.079,2.383,27.045,27.045,0,0,0-.295,6.4,44.968,44.968,0,0,0,2.893,10.875c2.3,6.132,5.223,12.158,5.971,18.669.429,3.855-.026,8.088-2.6,11.008-2.867,3.212-7.527,4.018-11.813,4.526-3.428.4-7.364,1.045-9.133,4.018a11.617,11.617,0,0,0-1.206,4.044,58.264,58.264,0,0,1-3.936,14.6,26.062,26.062,0,0,1-7.206,9.778c-1.446,1.151-3.133,1.98-4.5,3.241a40.028,40.028,0,0,0-3.481,4.178,32.065,32.065,0,0,1-3.8,4.044,20.491,20.491,0,0,1-3.267,2.409,14.775,14.775,0,0,1-9.214,2.2,15.5,15.5,0,0,1-8.838-4.528,21.08,21.08,0,0,1-5.142-8.088,19.885,19.885,0,0,1-.724-10.9,31.679,31.679,0,0,1,3.536-8.464,42.347,42.347,0,0,1,6.053-8.785c4.42-4.686,10.686-7.179,14.73-12.293a27.917,27.917,0,0,0,4.125-7.742,58.561,58.561,0,0,0,1.956-6.374c2.6-10.391,2.678-21.159,4.312-31.711a64.234,64.234,0,0,1,4.018-15.106c4.713-11.168,16.792-18.64,28.471-19.98,5.089-.59,11.624-.911,17.168.724,3.936,1.151,7.366,3.349,9.32,7.151.216.455.4.911.59,1.366A11.927,11.927,0,0,1,256.751,244.044Z" transform="translate(-161.247 -228.861)"/><path class="t" d="M211.508,237.8h-.155" transform="translate(-109.479 -219.622)"/><path class="y" d="M256.45,242.519a3.5,3.5,0,0,1-.081.537c-1.848,1.954-4.552,3-7.043,1.954a28.776,28.776,0,0,1-3.133-1.927c-5.063-2.973-11.571-.83-16.607,2.143-6.266,3.7-12.079,9.212-13.364,16.365-1.419,8.167,3.375,16.231,3.133,24.506-.24,8.143-5.3,15.346-10.928,21.239-3.589,3.725-7.472,7.153-10.605,11.25a38.319,38.319,0,0,0-7.848,21.641c-.213,5.679.777,11.839-1.393,16.955a20.491,20.491,0,0,1-3.267,2.409,14.775,14.775,0,0,1-9.214,2.2,15.5,15.5,0,0,1-8.838-4.528,21.08,21.08,0,0,1-5.142-8.088,18.865,18.865,0,0,1-.482-6.482c.669-6.079,4.713-11.276,9.4-15.239,4.66-3.965,10.044-6.992,14.73-10.9a51.138,51.138,0,0,0,18.213-38.891c-.006-3.239-.319-6.48-.148-9.721a25.234,25.234,0,0,1,2.023-7.915,40.171,40.171,0,0,1,9.806-15.405c.907-1.029,1.818-2.058,2.822-2.991a38.113,38.113,0,0,1,4.412-3.379,51.779,51.779,0,0,1,6.736-4.081,36.922,36.922,0,0,1,9.245-3.3c6.114-1.037,12.238-1.074,15.879,4.715A10.543,10.543,0,0,1,256.45,242.519Z" transform="translate(-160.947 -227.336)"/><path class="z" d="M201.422,236.608a17.584,17.584,0,0,1-2.379,15.729c-1.527,2.1-3.5,3.828-5.219,5.778a10.564,10.564,0,0,0-1.675,13.848c1.149,2.165,2.57,4.19,3.526,6.447a17.386,17.386,0,0,1,1.372,6.555,13.982,13.982,0,0,1-1.909,7.472,10.094,10.094,0,0,1-6.073,4.593" transform="translate(-132.508 -220.858)"/></g><rect class="k" width="158.799" height="4.241" transform="translate(349.679 456.596)"/><rect class="k" width="3.456" height="175.289" transform="translate(505.425 635.431) rotate(175.36)"/><rect class="aa" width="19.807" height="3.249" transform="translate(383.589 453.344)"/><rect class="ab" width="2.844" height="80.554" transform="translate(492.582 347.476) rotate(8.614)"/><rect class="aa" width="6.237" height="94.391" transform="translate(495.314 342.398) rotate(8.617)"/><g transform="translate(334.951 536.901)"><g transform="translate(0)"><path class="ac" d="M250.537,447.5s-33.97-25.657-26.008-52.074S244.7,376.211,244.7,376.211s2.655-51.984,20.7-39.519,32.909,38.73,31.317,40.6,11.148-17.357,11.148,10.957S282.915,447.5,282.915,447.5C274.422,450.362,250.537,447.5,250.537,447.5Z" transform="translate(-223.319 -334.761)"/><path class="ad" d="M243.3,341.269c-1.3,1.139,13.025,67.089,8.31,85.9" transform="translate(-202.76 -328.038)"/><path class="ad" d="M231.533,361.819c-.6.407,14.854,23.213,33.126,29.294" transform="translate(-214.851 -306.807)"/><path class="ad" d="M276.137,358.093s-11.2,16.881-28.32,24.4" transform="translate(-198.009 -310.656)"/></g><g transform="translate(19.548 112.206)"><path class="g" d="M277.362,392.452l-1.637,3.958-8.479,20.531-22.294-.028-8.9-20.5-1.7-3.958Z" transform="translate(-231.476 -387.364)"/><path class="h" d="M277.362,391.821V393.1l-1.637,3.958H236.046l-1.7-3.958v-1.281Z" transform="translate(-231.476 -388.015)"/><path class="g" d="M279.814,397.544l-46.88-2.516,0-5.079,51.182.021Z" transform="translate(-232.934 -389.949)"/></g></g><g transform="translate(523.171 262.547)"><rect class="ae" width="9.857" height="73.291" transform="translate(63.369 5.199)"/><rect class="ae" width="9.857" height="64.342" transform="translate(79.563 14.148)"/><rect class="ae" width="9.857" height="78.237" transform="translate(96.461)"/><rect class="ae" width="9.857" height="61.978" transform="translate(45.148 16.512)"/><rect class="ae" width="9.857" height="67.852" transform="translate(26.927 10.638)"/><rect class="ae" width="9.857" height="64.342" transform="translate(8.706 14.148)"/><path class="af" d="M315.894,275.67s23.961-28.346,24.126-26.706,14.6,10.082,14.6,10.082l30.628-40.712L397.217,247l25-44.622" transform="translate(-315.894 -197.18)"/><path class="ag" d="M315.894,202.379V275.67H429.957" transform="translate(-315.894 -197.18)"/></g><path class="a" d="M307.181,283.352l0,.008.1.069c.25.175,4.255,7.734,4.4,8.019L305.07,297.5c-.268-.173-7.441-4.837-7.59-5.1l-.061-.108-.008,0-7.966,2.889,0,.008.024.12c.055.3-2.46,8.478-2.558,8.783l-8.958-.4c-.067-.313-1.84-8.684-1.759-8.976l.035-.118,0-.01-7.673-3.589-.01,0-.067.1c-.175.252-7.734,4.255-8.019,4.4l-6.049-6.62c.173-.268,4.837-7.441,5.1-7.59l.108-.059,0-.01-2.887-7.966-.008,0-.12.024c-.3.055-8.478-2.46-8.783-2.556l.4-8.958c.313-.069,8.682-1.84,8.976-1.759l.118.035.008,0,3.591-7.675,0-.01-.1-.067c-.25-.175-4.253-7.734-4.4-8.019l6.62-6.049c.268.173,7.439,4.837,7.59,5.1l.059.108.01,0,7.964-2.889.006-.008-.024-.12c-.055-.3,2.46-8.478,2.556-8.783l8.958.4c.069.313,1.84,8.682,1.759,8.976l-.035.118,0,.008,7.675,3.591.008,0,.069-.1c.173-.252,7.734-4.255,8.017-4.4l6.051,6.62c-.173.268-4.839,7.439-5.1,7.59l-.108.059,0,.01,2.887,7.964.01.006.12-.024c.3-.055,8.476,2.46,8.783,2.556l-.4,8.958c-.313.069-8.684,1.84-8.977,1.759l-.118-.035-.01,0Zm-9.822-27.665a18.032,18.032,0,1,0-1.145,25.476A18.031,18.031,0,0,0,297.358,255.687Z" transform="translate(136.943 95.579)"/><g transform="translate(410.641 503.507)"><path class="e" d="M291.812,435.193c-2.853-.26-6.057-1.856-9.275-3.684a180.221,180.221,0,0,1-3.023-23.991,151.861,151.861,0,0,1,14.948,2.991c-2.779-.724-8.926-4.532-15.2-7.691q-.223-5.188-.23-10.629a205.615,205.615,0,0,1,3.347-38.547,71.137,71.137,0,0,1,12.392,4.589c-2.7-1.32-6.866-5.943-11.221-9.908,2.958-12.055,7.122-19.575,11.737-19.575,7.429,0,13.691,19.455,15.631,46.015-4.983,4.6-9.743,10.593-12.036,13.016,1.683-1.773,6.99-3.214,12.488-4.867q.171,4.544.175,9.277a225.033,225.033,0,0,1-1.751,28.635c-5.487,3.465-10.747,7.661-13.6,8.476,4.264-1.218,8.556-2.338,12.864-3.4-2.877,17.853-7.966,29.729-13.771,29.729-4.823,0-9.153-8.208-12.132-21.228Q287.485,434.8,291.812,435.193Z" transform="translate(-241.447 -307.583)"/><path class="ah" d="M295.851,441.509c-2.838.417-6.433-.612-10.113-1.9a253.806,253.806,0,0,1-10.4-26.781,131.482,131.482,0,0,1,15.379-.313c-2.911-.134-10.04-2.964-17.087-5.02q-1.833-5.9-3.538-12.142a289.263,289.263,0,0,1-8.781-45.086,64.948,64.948,0,0,1,13.407,2.161c-3.017-.838-8.491-5.1-13.935-8.56-.9-14.58.781-24.256,5.244-25.413,7.179-1.862,19.3,18.9,29.455,48.9-3.383,6.531-6.114,14.6-7.578,17.959,1.076-2.458,5.756-5.445,10.554-8.718q1.58,5.172,3.062,10.605a317.566,317.566,0,0,1,7.234,33.307c-4.223,5.351-8,11.49-10.5,13.14,3.741-2.468,7.541-4.831,11.374-7.126,2.787,21.214,1.57,36.121-4.038,37.575-4.664,1.21-11.408-7.124-18.345-21.324Z" transform="translate(-260.547 -318.337)"/><path class="ah" d="M294.058,422.122c-2.245-1.734-4.095-4.676-5.839-7.8a151.866,151.866,0,0,1,9.824-19.872c3.767,3.286,7.45,6.671,10.926,10.333-1.944-2.049-5.111-8.259-8.716-14.041q2.482-4.065,5.276-8.208a176.085,176.085,0,0,1,22.629-27.507,73.176,73.176,0,0,1,7.974,10.168c-1.572-2.456-2.669-8.22-4.262-13.582,8.672-7.572,16.015-11.046,19.864-8.558,6.2,4.005,1.409,22.172-10.642,43.416-6.522.811-13.578,2.8-16.739,3.41,2.32-.441,7.488,1.324,12.923,3.029q-2.2,3.547-4.628,7.149a192.077,192.077,0,0,1-16.2,20.832c-6.36-.325-12.907.033-15.706-.886,4.184,1.372,8.34,2.834,12.478,4.351-11.585,12.024-21.942,18.311-26.783,15.184-4.024-2.6-3.412-11.174.805-22.682Q290.653,419.488,294.058,422.122Z" transform="translate(-236.594 -293.623)"/><g transform="translate(1.354 125.47)"><path class="g" d="M347.454,385.287l-1.661,8.115-7.081,34.912H273.643L266.563,393.4l-1.661-8.115Z" transform="translate(-257.402 -374.636)"/><path class="h" d="M347.454,383.634v3.36l-1.661,8.115h-79.23l-1.661-8.115v-3.36Z" transform="translate(-257.402 -376.344)"/><rect class="g" width="95.04" height="13.945"/></g></g><path class="g" d="M302.255,259.653v.008l.083.067c.226.185,2.2,8.165,2.275,8.464l-7.887,7.4c-.293-.089-8.133-2.566-8.306-2.8l-.061-.085-.008,0-10.444,6.112,0,.008.045.1c.124.264-1.557,8.312-1.622,8.613l-10.318,3.249c-.226-.207-6.215-5.841-6.266-6.128l-.018-.106-.006,0-12.063.976,0,.006,0,.106c0,.293-5.01,6.813-5.2,7.055l-10.707-1.549c-.112-.285-3.064-7.958-2.987-8.238l.031-.1,0-.006-11.29-4.355-.008,0-.047.1c-.132.262-7.472,3.965-7.746,4.1l-8.974-6.041c.022-.3.691-8.5.884-8.718l.071-.081v-.008l-8.283-8.822h-.008l-.083.065c-.232.179-8.452.331-8.759.333l-5.463-9.334c.153-.266,4.31-7.36,4.579-7.474l.1-.041,0-.006-3.635-11.544-.006,0-.1.022c-.287.061-7.759-3.369-8.037-3.5L171.1,216.7c.254-.173,7.077-4.76,7.37-4.745l.106.006.006,0,1.732-11.977,0-.006-.1-.026c-.283-.067-5.528-6.4-5.721-6.638l3.894-10.093c.3-.047,8.44-1.218,8.7-1.078l.091.051.008,0,6.758-10.04v-.008l-.083-.067c-.226-.185-2.2-8.165-2.275-8.464l7.887-7.4c.293.089,8.133,2.564,8.3,2.8l.063.087h.008l10.444-6.112,0-.008-.045-.1c-.124-.266,1.557-8.314,1.622-8.613l10.318-3.251c.224.209,6.213,5.841,6.266,6.128l.016.106.008.006,12.061-.976.006-.006,0-.108c0-.291,5.01-6.813,5.2-7.055l10.707,1.549c.112.285,3.064,7.958,2.987,8.24l-.03.1,0,.008,11.29,4.353.008,0,.047-.1c.13-.262,7.472-3.965,7.746-4.1l8.974,6.041c-.024.3-.691,8.5-.884,8.72l-.071.079v.008l8.283,8.822h.008l.083-.065c.232-.179,8.452-.329,8.759-.333l5.463,9.336c-.152.264-4.31,7.358-4.579,7.472l-.1.041,0,.008,3.637,11.542.006,0,.1-.022c.287-.061,7.759,3.369,8.035,3.5l.872,10.782c-.252.173-7.075,4.76-7.368,4.745l-.106-.006-.006,0-1.734,11.977.006.008.1.024c.283.069,5.528,6.4,5.721,6.638l-3.894,10.093c-.3.047-8.44,1.218-8.7,1.08l-.094-.053-.006,0Zm-26.163-70.039a38.4,38.4,0,1,0-1.71,54.284A38.4,38.4,0,0,0,276.092,189.614Z" transform="translate(57.683 0)"/><rect class="ab" width="37.718" height="7.286" rx="1.18" transform="translate(238.64 652.107)"/><line class="ai" y2="108.566" transform="translate(257.29 544.917)"/></g></svg>