<svg xmlns="http://www.w3.org/2000/svg" width="139.742" height="32" viewBox="0 0 139.742 32">
  <g id="logo" transform="translate(-30 -21)">
    <g id="Group_331" data-name="Group 331" transform="translate(30 21)">
      <path id="Path_313" data-name="Path 313" d="M1337.49,286.977" transform="translate(-1331.077 -259.274)" fill="#17cfe0" stroke="#fff" stroke-miterlimit="10" stroke-width="3"/>
      <path id="Path_314" data-name="Path 314" d="M1346.693,259.814c.944-2.361.77-3.084-.894-5.461a31.751,31.751,0,0,1-2.349-3.648.569.569,0,0,0-.86-.217l-3.075,2.306a.173.173,0,0,0-.014.267c1.477,1.277,4.213,1.1,6.059,2.486,1.79,1.343,1.258,3.942,1.133,4.267" transform="translate(-1332.245 -237.438)" fill="#17cfe0"/>
      <path id="Path_315" data-name="Path 315" d="M1338.732,223.858a2.444,2.444,0,0,1-1.941.852c-1.115-.515-1.7-2.087-1.7-3.8a3.341,3.341,0,0,1,.948-2.564,16.1,16.1,0,0,0-.346,31.995c-4.882-4.238-.583-8.856-.583-8.856s0-2.635-.956-3.593a5.253,5.253,0,0,0-3.822-1.2c-1.433,0-4.181-.6-4.181-2.036s1.433-3.113,2.389-4.311A8.078,8.078,0,0,1,1333.8,227c2-.334,2.371-1.249,2.414-1.773a3.074,3.074,0,0,0,2.519-1.368" transform="translate(-1321.559 -218.349)" fill="#17cfe0"/>
      <path id="Path_316" data-name="Path 316" d="M1356.431,273.827l-.014.033s.005-.012.014-.033Z" transform="translate(-1342.386 -251.44)" fill="#17cfe0"/>
      <path id="Path_317" data-name="Path 317" d="M1365.811,218.591a2.791,2.791,0,0,1,.892,1.335,4.207,4.207,0,0,1,.177,1.64,4.73,4.73,0,0,1-1.434,3l.123-.238a6.274,6.274,0,0,0,.123,1.458,2.4,2.4,0,0,0,.548,1.182,1.469,1.469,0,0,0,.5.305c.111.046.23.088.381.157a1.377,1.377,0,0,1,.484.356,2.378,2.378,0,0,1,.424.912,1,1,0,0,0,.3.389,6.182,6.182,0,0,1,1.206,1.2,2.731,2.731,0,0,1,.386.905,3.547,3.547,0,0,1,.076.94,4.07,4.07,0,0,1-.472,1.761,4.4,4.4,0,0,1-.509.759,3.79,3.79,0,0,1-.695.652l.266-.558a3.984,3.984,0,0,0,.729,1.883,21.8,21.8,0,0,1,1.32,1.991,6.108,6.108,0,0,1,.713,2.445,6.766,6.766,0,0,1-.269,2.5,4.92,4.92,0,0,1-1.371,2.125,13.217,13.217,0,0,1-1.944,1.408c-.332.207-.66.411-.983.624a6.852,6.852,0,0,0-.909.67,2.315,2.315,0,0,0-.564,2.093,2.963,2.963,0,0,1-.15-1.177,2.232,2.232,0,0,1,.464-1.136,6.1,6.1,0,0,1,.883-.826c.3-.251.615-.493.922-.732a13.049,13.049,0,0,0,1.724-1.482,4.221,4.221,0,0,0,1.028-1.832,6.461,6.461,0,0,0,.118-2.139,4.982,4.982,0,0,0-.662-1.994c-.35-.62-.829-1.2-1.3-1.883a5.191,5.191,0,0,1-.952-2.431l-.032-.341.3-.217a2.882,2.882,0,0,0,.451-.424,3.2,3.2,0,0,0,.374-.543,2.887,2.887,0,0,0,.351-1.254,1.948,1.948,0,0,0-.256-1.171,5.474,5.474,0,0,0-.993-1.034,1.993,1.993,0,0,1-.573-.9,1.612,1.612,0,0,0-.19-.526.383.383,0,0,0-.144-.109c-.085-.046-.211-.1-.338-.163a2.477,2.477,0,0,1-.792-.571,3.275,3.275,0,0,1-.69-1.673,6.316,6.316,0,0,1-.013-1.684l.017-.153.106-.085a4.143,4.143,0,0,0,.95-1.112,4.364,4.364,0,0,0,.539-1.4,4.186,4.186,0,0,0,.019-1.522A2.808,2.808,0,0,0,1365.811,218.591Z" transform="translate(-1347.39 -218.494)" fill="#17cfe0"/>
    </g>
    <g id="Group_66100" data-name="Group 66100" transform="translate(-2 -0.465)">
      <g id="Group_332" data-name="Group 332" transform="translate(68.151 25.465)">
        <path id="Path_318" data-name="Path 318" d="M1411.1,244.369V229.721h9.44v1.18h-8.056v5.289h7.324v1.18h-7.324v7Z" transform="translate(-1411.095 -229.721)" fill="#17cfe0"/>
        <path id="Path_319" data-name="Path 319" d="M1439.454,237.716v6.652l-1.384-.02V229.721h5.737a6.379,6.379,0,0,1,3.7.905,3.347,3.347,0,0,1,1.281,2.94,3.818,3.818,0,0,1-.56,2.2,4.271,4.271,0,0,1-1.821,1.383,2.275,2.275,0,0,1,1.017.651,2.879,2.879,0,0,1,.55.976,4.982,4.982,0,0,1,.234,1.16q.05.61.071,1.18.02.834.071,1.383a8.221,8.221,0,0,0,.122.9,2.072,2.072,0,0,0,.173.539.824.824,0,0,0,.244.295v.122l-1.526.02a2.666,2.666,0,0,1-.315-1.017q-.092-.651-.143-1.363t-.082-1.383a7.879,7.879,0,0,0-.112-1.1,2.291,2.291,0,0,0-.4-.946,1.806,1.806,0,0,0-.661-.539,2.852,2.852,0,0,0-.864-.244,7.8,7.8,0,0,0-.987-.061Zm4.313-1.18a6,6,0,0,0,1.434-.163,3.245,3.245,0,0,0,1.15-.519,2.576,2.576,0,0,0,.773-.905,2.848,2.848,0,0,0,.285-1.322,2.73,2.73,0,0,0-.3-1.343,2.235,2.235,0,0,0-.793-.834,3.375,3.375,0,0,0-1.139-.427,7.119,7.119,0,0,0-1.333-.122h-4.394v5.635Z" transform="translate(-1426.637 -229.721)" fill="#17cfe0"/>
        <path id="Path_320" data-name="Path 320" d="M1470.135,244.369V229.721h9.745v1.18h-8.362v5.289h7.548v1.18h-7.548v5.818h8.565v1.18Z" transform="translate(-1444.823 -229.721)" fill="#17cfe0"/>
        <path id="Path_321" data-name="Path 321" d="M1502.05,236.78l4.415-7.059h1.607l-5.309,8.26v6.388h-1.383v-6.286l-5.229-8.361h1.588Z" transform="translate(-1459.676 -229.721)" fill="#17cfe0"/>
        <path id="Path_322" data-name="Path 322" d="M1525.621,244.369l5.757-14.648h1.567l5.615,14.648h-1.425l-1.687-4.6h-6.673l-1.73,4.6Zm3.621-5.778h5.737l-2.868-7.69Z" transform="translate(-1476.502 -229.721)" fill="#17cfe0"/>
        <path id="Path_323" data-name="Path 323" d="M1560.805,244.369V229.721h9.745v1.18h-8.361v5.289h7.547v1.18h-7.547v5.818h8.565v1.18Z" transform="translate(-1496.621 -229.721)" fill="#fff"/>
        <path id="Path_324" data-name="Path 324" d="M1590.084,244.369V229.721h1.384v6.286h8.667v-6.286h1.384v14.648h-1.384v-7.181h-8.667v7.181Z" transform="translate(-1513.167 -229.721)" fill="#fff"/>
        <path id="Path_325" data-name="Path 325" d="M1626.124,237.716v6.652l-1.384-.02V229.721h5.738a6.381,6.381,0,0,1,3.7.905,3.347,3.347,0,0,1,1.281,2.94,3.826,3.826,0,0,1-.559,2.2,4.276,4.276,0,0,1-1.821,1.383,2.275,2.275,0,0,1,1.017.651,2.892,2.892,0,0,1,.55.976,4.994,4.994,0,0,1,.234,1.16q.05.61.071,1.18.021.834.071,1.383a8.39,8.39,0,0,0,.123.9,2.067,2.067,0,0,0,.173.539.82.82,0,0,0,.244.295v.122l-1.526.02a2.662,2.662,0,0,1-.315-1.017q-.092-.651-.142-1.363t-.082-1.383a8.036,8.036,0,0,0-.111-1.1,2.3,2.3,0,0,0-.4-.946,1.809,1.809,0,0,0-.661-.539,2.855,2.855,0,0,0-.865-.244,7.784,7.784,0,0,0-.987-.061Zm4.314-1.18a5.985,5.985,0,0,0,1.433-.163,3.244,3.244,0,0,0,1.15-.519,2.575,2.575,0,0,0,.773-.905,2.844,2.844,0,0,0,.284-1.322,2.729,2.729,0,0,0-.3-1.343,2.236,2.236,0,0,0-.793-.834,3.374,3.374,0,0,0-1.139-.427,7.111,7.111,0,0,0-1.333-.122h-4.395v5.635Z" transform="translate(-1533.135 -229.721)" fill="#fff"/>
      </g>
      <path id="Path_326" data-name="Path 326" d="M1407.441,280.427a27.217,27.217,0,0,1,6.271-2.278l1.631-.383c.545-.124,1.1-.209,1.646-.315s1.1-.217,1.652-.289l1.66-.232a101.51,101.51,0,0,1,13.383-.738c4.467.075,8.934.323,13.374.786l3.33.351c1.11.125,2.211.3,3.317.447l6.61.921c2.192.315,4.381.658,6.584.882l3.3.379c1.1.132,2.205.191,3.307.3l3.308.294,3.314.2c1.105.067,2.21.137,3.317.157l3.319.111c4.426.054,8.858,0,13.276-.328,2.208-.165,4.416-.379,6.61-.695a52.586,52.586,0,0,0,6.532-1.263,45.194,45.194,0,0,1-6.45,1.726c-2.185.457-4.4.772-6.609,1.06a126.975,126.975,0,0,1-13.366.823c-2.232-.019-4.469.02-6.7-.108l-3.347-.137-3.34-.237c-1.113-.086-2.229-.15-3.338-.274l-3.328-.362c-2.223-.214-4.429-.543-6.639-.851l-6.595-.959c-1.1-.153-2.19-.334-3.289-.463l-3.3-.382c-4.395-.551-8.813-.829-13.232-1.06a116.793,116.793,0,0,0-13.26.244l-1.653.143c-.552.043-1.1.136-1.646.2s-1.1.132-1.644.226l-1.635.283c-.548.081-1.082.227-1.625.337s-1.077.254-1.611.4A18.571,18.571,0,0,0,1407.441,280.427Z" transform="translate(-1341.441 -230.876)" fill="#17cfe0"/>
    </g>
  </g>
</svg>
